<?xml version="1.0" encoding="UTF-8"?>
<svg width="59px" height="49px" viewBox="0 0 59 49" version="1.1" xmlns="http://www.w3.org/2000/svg" xmlns:xlink="http://www.w3.org/1999/xlink">
    <!-- Generator: sketchtool 63.1 (101010) - https://sketch.com -->
    <title>730AF5DE-ADA3-4575-94AE-1EC00AD6133A</title>
    <desc>Created with sketchtool.</desc>
    <g id="Case-Studies" stroke="none" stroke-width="1" fill="none" fill-rule="evenodd">
        <g id="assets_case-studies" transform="translate(-2341.000000, -821.000000)" fill="#C83667" fill-rule="nonzero">
            <g id="icn-quote" transform="translate(2338.000000, 813.000000)">
                <path d="M27,57 L27,33.4927066 L18,33.4927066 L18,30.9513776 C18,23.1685575 21,18.45651 27,16.815235 L27,16.815235 L27,8 C11,9.37655321 3,19.7801189 3,39.2106969 L3,39.2106969 L3,57 L27,57 Z M62,57 L62,33.4927066 L53,33.4927066 L53,30.9513776 C53,23.1685575 56,18.45651 62,16.815235 L62,16.815235 L62,8 C46,9.37655321 38,19.7801189 38,39.2106969 L38,39.2106969 L38,57 L62,57 Z" id="“"></path>
            </g>
        </g>
    </g>
</svg>