<?xml version="1.0" encoding="UTF-8"?>
<svg width="36px" height="36px" viewBox="0 0 36 36" version="1.1" xmlns="http://www.w3.org/2000/svg" xmlns:xlink="http://www.w3.org/1999/xlink">
    <!-- Generator: sketchtool 63.1 (101010) - https://sketch.com -->
    <title>0BD8B21E-56BD-4325-9F7F-B0653A7D2FCC</title>
    <desc>Created with sketchtool.</desc>
    <g id="Industries" stroke="none" stroke-width="1" fill="none" fill-rule="evenodd">
        <g id="assets_industries" transform="translate(-1490.000000, -2706.000000)">
            <g id="icn-pink-arrow" transform="translate(1490.000000, 2706.000000)">
                <circle id="Oval" fill="#FF4181" cx="18" cy="18" r="18"></circle>
                <path d="M10.5,11.925 C11.3215236,11.925 11.9961415,12.5539777 12.0685635,13.3566429 L12.075,13.5 L12.075,20.925 L19.5,20.925 C20.3215236,20.925 20.9961415,21.5539777 21.0685635,22.3566429 L21.075,22.5 C21.075,23.3215236 20.4460223,23.9961415 19.6433571,24.0685635 L19.5,24.075 L10.5,24.075 C9.67847643,24.075 9.00385849,23.4460223 8.93143651,22.6433571 L8.925,22.5 L8.925,13.5 C8.925,12.6301515 9.63015152,11.925 10.5,11.925 Z" id="Path-9" fill="#FFFFFF" fill-rule="nonzero" transform="translate(15.000000, 18.000000) scale(-1, 1) rotate(45.000000) translate(-15.000000, -18.000000) "></path>
            </g>
        </g>
    </g>
</svg>