<?xml version="1.0" encoding="UTF-8"?>
<svg width="24px" height="24px" viewBox="0 0 24 24" version="1.1" xmlns="http://www.w3.org/2000/svg" xmlns:xlink="http://www.w3.org/1999/xlink">
    <!-- Generator: sketchtool 60.1 (101010) - https://sketch.com -->
    <title>4D483DD3-10BE-42EE-B768-C82973D2A0EA</title>
    <desc>Created with sketchtool.</desc>
    <g id="Symbols" stroke="none" stroke-width="1" fill="none" fill-rule="evenodd">
        <g id="Icons/Magnifying-Glass" fill="#FFFFFF" fill-rule="nonzero">
            <path d="M2.03153819,24 L1.70530257e-13,21.9721933 L6.32313724,15.6611916 C5.38784054,14.1848392 4.84647425,12.4351112 4.84647425,10.5591725 C4.84647425,5.27978729 9.13413703,1 14.4232371,1 C19.7123372,1 24,5.27978729 24,10.5591725 C24,15.8385576 19.7123372,20.1183449 14.4232371,20.1183449 C12.0522612,20.1183449 9.8825254,19.2583163 8.21005808,17.8337438 L2.03153819,24 Z M14.4232371,3.86775174 C10.7208671,3.86775174 7.71950311,6.86360284 7.71950311,10.5591725 C7.71950311,14.2547421 10.7208671,17.2505932 14.4232371,17.2505932 C18.1256072,17.2505932 21.1269711,14.2547421 21.1269711,10.5591725 C21.1269711,6.86360284 18.1256072,3.86775174 14.4232371,3.86775174 Z"></path>
        </g>
    </g>
</svg>