<?xml version="1.0" encoding="UTF-8"?>
<svg width="20px" height="20px" viewBox="0 0 20 20" version="1.1" xmlns="http://www.w3.org/2000/svg" xmlns:xlink="http://www.w3.org/1999/xlink">
    <!-- Generator: sketchtool 60.1 (101010) - https://sketch.com -->
    <title>175C84C3-3A7C-4C50-9025-BEB7E34F3742</title>
    <desc>Created with sketchtool.</desc>
    <g id="Symbols" stroke="none" stroke-width="1" fill="none" fill-rule="evenodd">
        <g id="Icons/Tag" fill="#FF4181">
            <path d="M17.5207837,10.4302865 C15.0743723,7.97352284 12.6242277,5.52049393 10.1669719,3.07457886 C9.44110184,2.35199085 8.55167551,1.99718822 7.52180408,2.00001678 C6.21619804,2.00376852 4.91076978,2.00074514 3.60516374,2.00110083 C2.52924766,2.00127868 2.00444523,2.52058879 2.00373411,3.58570806 C2.00337856,4.24996261 2.00373411,4.91421716 2.00373411,5.5784717 C2.00373411,6.26531268 1.99395629,6.95215366 2.00604524,7.6388168 C2.02275642,8.57695407 2.34169123,9.40642749 3.00373874,10.0740611 C5.46863903,12.5596358 7.94260602,15.0364961 10.4167508,17.5130006 C11.0448426,18.141686 11.8329351,18.1683629 12.4533824,17.5540831 C14.1573903,15.8673923 15.8539315,14.1728762 17.5378504,12.4660889 C18.1646977,11.831001 18.1488754,11.061106 17.5207837,10.4302865 Z M5.38312752,6.73145816 C4.64196854,6.73447025 4.02809903,6.12997193 4.02116567,5.39031071 C4.01405452,4.63535474 4.63219071,4.01485029 5.38686087,4.01944861 C6.12624207,4.02392043 6.73282265,4.63606612 6.73228967,5.37715011 C6.7315782,6.11841195 6.12393095,6.72842348 5.38312752,6.73145816 Z"></path>
        </g>
    </g>
</svg>