<?xml version="1.0" encoding="UTF-8"?>
<svg width="36px" height="51px" viewBox="0 0 36 51" version="1.1" xmlns="http://www.w3.org/2000/svg" xmlns:xlink="http://www.w3.org/1999/xlink">
    <!-- Generator: sketchtool 63.1 (101010) - https://sketch.com -->
    <title>B422E133-78A2-40A0-AC28-6A6B96A7AD25</title>
    <desc>Created with sketchtool.</desc>
    <g id="Industries" stroke="none" stroke-width="1" fill="none" fill-rule="evenodd">
        <g id="assets_industries" transform="translate(-455.000000, -2870.000000)" fill="#FF4181" fill-rule="nonzero">
            <g id="icn-planning-active" transform="translate(441.000000, 2863.000000)">
                <path d="M32,7 C34.4852814,7 36.5,9.01471863 36.5,11.5 L36.5,11.5 L36.5,13.3 L45.5,13.3 C47.9852814,13.3 50,15.3147186 50,17.8 L50,17.8 L50,52.9 C50,55.3852814 47.9852814,57.4 45.5,57.4 L45.5,57.4 L18.5,57.4 C16.0147186,57.4 14,55.3852814 14,52.9 L14,52.9 L14,17.8 C14,15.3147186 16.0147186,13.3 18.5,13.3 L18.5,13.3 L27.5,13.3 L27.5,11.5 C27.5,9.01471863 29.5147186,7 32,7 Z M29.561,41.461 L27.5,43.531 L25.439,41.461 L24.161,42.739 L26.231,44.8 L24.161,46.861 L25.439,48.139 L27.5,46.069 L29.561,48.139 L30.839,46.861 L28.769,44.8 L30.839,42.739 L29.561,41.461 Z M22.7246436,27.0906778 C21.1439134,28.1075217 20.568016,30.1424838 21.3814601,31.8368828 C22.1949043,33.5312819 24.1429725,34.3545429 25.925,33.757 L25.97,33.874 C26.7393738,36.2535318 28.4595985,38.2083326 30.722,39.274 C32.8704422,40.2894732 35.1728869,40.9403625 37.535,41.2 L36.311,42.424 L37.58,43.693 L40.766,40.507 C41.1149512,40.1559663 41.1149512,39.5890337 40.766,39.238 L37.589,36.034 L36.32,37.303 L38.453,39.4 C36.0454538,39.2500658 33.6865807,38.6550073 31.496,37.645 C29.6568964,36.7741394 28.2641642,35.1759221 27.653,33.235 C27.581,33.046 27.518,32.902 27.464,32.767 C28.7466322,31.3931244 28.805188,29.2790526 27.6005717,27.8362848 C26.3959553,26.393517 24.3053738,26.0738338 22.7246436,27.0906778 Z M40.361,27.061 L38.3,29.131 L36.239,27.061 L34.961,28.339 L37.031,30.4 L34.961,32.461 L36.239,33.739 L38.3,31.669 L40.361,33.739 L41.639,32.461 L39.569,30.4 L41.639,28.339 L40.361,27.061 Z M24.8,28.6 C25.7941125,28.6 26.6,29.4058875 26.6,30.4 C26.6,31.3941125 25.7941125,32.2 24.8,32.2 C23.8058875,32.2 23,31.3941125 23,30.4 C23,29.4058875 23.8058875,28.6 24.8,28.6 Z M32,8.8 C30.5088312,8.8 29.3,10.0088312 29.3,11.5 L29.3,11.5 L29.3,14.2 C29.2926051,14.6042693 29.016515,14.9539834 28.625,15.055 L28.625,15.055 L28.625,15.1 L25.7,15.1 L25.7,20.5 L38.3,20.5 L38.3,15.1 L35.6,15.1 C35.1029437,15.1 34.7,14.6970563 34.7,14.2 L34.7,14.2 L34.7,11.5 C34.7,10.0088312 33.4911688,8.8 32,8.8 Z" id="Combined-Shape"></path>
            </g>
        </g>
    </g>
</svg>