<?xml version="1.0" encoding="UTF-8"?>
<svg width="50px" height="38px" viewBox="0 0 50 38" version="1.1" xmlns="http://www.w3.org/2000/svg" xmlns:xlink="http://www.w3.org/1999/xlink">
    <!-- Generator: sketchtool 63.1 (101010) - https://sketch.com -->
    <title>C53BD2A9-471D-42EE-8678-A0168ACF6BCC</title>
    <desc>Created with sketchtool.</desc>
    <defs>
        <path d="M17.2608621,13 L17.2608621,16.0079333 L47.1326851,16.0079333 L47.1326851,13 L52.8202354,13 L52.8202354,16.0079333 L53.8631966,16.0079333 C55.5866413,16.0079333 57,17.4265967 57,19.15651 L57,34.2383696 C57,35.9682828 55.5866413,37.3869462 53.8631966,37.3869462 L52.8202354,37.3869462 L52.8202354,51 L47.1326851,51 L47.1326851,37.3869462 L17.2608621,37.3869462 L17.2608621,51 L11.5733119,51 L11.5733119,37.3869462 L10.1374126,37.3869462 C8.41335868,37.3869462 7,35.9682828 7,34.2383696 L7,19.15651 C7,17.4265967 8.41335868,16.0079333 10.1374126,16.0079333 L11.5733119,16.0079333 L11.5733119,13 L17.2608621,13 Z M12.0021931,17.4437185 L8.43041645,26.9775035 L8.43041645,34.2383696 C8.43041645,35.183126 9.19618881,35.951161 10.1374126,35.951161 L11.7579014,35.951161 L18.6912786,17.4437185 L12.0021931,17.4437185 Z M25.415698,17.4437185 L18.4817116,35.951161 L25.1714063,35.951161 L32.1053927,17.4437185 L25.415698,17.4437185 Z M38.8292029,17.4437185 L31.8952165,35.951161 L38.5855204,35.951161 L45.5188976,17.4437185 L38.8292029,17.4437185 Z M52.243317,17.4437185 L45.3087214,35.951161 L51.9984161,35.951161 L55.5695835,26.419822 L55.5695835,19.15651 C55.5695835,18.2117535 54.8044204,17.4437185 53.8631966,17.4437185 L52.243317,17.4437185 Z" id="path-1"></path>
    </defs>
    <g id="Industries" stroke="none" stroke-width="1" fill="none" fill-rule="evenodd">
        <g id="assets_industries" transform="translate(-364.000000, -2876.000000)">
            <g id="icn-construction-active" transform="translate(357.000000, 2863.000000)">
                <mask id="mask-2" fill="white">
                    <use xlink:href="#path-1"></use>
                </mask>
                <use id="Shape" fill="#FF4181" xlink:href="#path-1"></use>
            </g>
        </g>
    </g>
</svg>