<?xml version="1.0" encoding="UTF-8"?>
<svg width="34px" height="43px" viewBox="0 0 34 43" version="1.1" xmlns="http://www.w3.org/2000/svg" xmlns:xlink="http://www.w3.org/1999/xlink">
    <!-- Generator: sketchtool 63.1 (101010) - https://sketch.com -->
    <title>6EF06818-3E23-412D-ADE6-5A42D5C79A88</title>
    <desc>Created with sketchtool.</desc>
    <defs>
        <path d="M47.9589835,20.5800779 C48.310546,20.4042966 48.4863272,20.1406248 48.4863272,19.7890623 L48.4863272,16.2734374 C48.4863272,15.7460936 48.0468741,15.3945311 47.607421,15.3945311 L40.5761712,15.3945311 L40.5761712,13.6367187 C40.5761712,12.1425781 39.4335931,11 37.9394525,11 L25.5468747,11 C24.0527341,11 22.910156,12.1425781 22.910156,13.6367187 L22.910156,15.3945311 L15.8789062,15.3945311 C15.3515625,15.3945311 15,15.7460936 15,16.2734374 L15,19.7890623 C15,20.1406248 15.1757812,20.4921872 15.5273437,20.5800779 L22.9980467,23.9199215 L22.9980467,27.6992183 L15.8789062,27.6992183 C15.4394531,27.6992183 15,28.0507808 15,28.5781245 L15,32.0937494 C15,32.4453119 15.1757812,32.7968744 15.5273437,32.884765 L22.9980467,36.2246087 L22.9980467,40.0039055 L15.8789062,40.0039055 C15.4394531,40.0039055 15,40.355468 15,40.8828117 L15,44.3984366 C15,44.7499991 15.1757812,45.1015616 15.5273437,45.1894522 L22.9980467,48.5292959 L22.9980467,50.5507802 C22.9980467,52.0449208 24.1406248,53.1874989 25.6347653,53.1874989 L37.9394525,53.1874989 C39.4335931,53.1874989 40.5761712,52.0449208 40.5761712,50.5507802 L40.5761712,48.4414053 L47.9589835,45.1894522 C48.310546,45.013671 48.4863272,44.7499991 48.4863272,44.3984366 L48.4863272,40.8828117 C48.4863272,40.355468 48.0468741,40.0039055 47.607421,40.0039055 L40.5761712,40.0039055 L40.5761712,36.1367181 L47.9589835,32.884765 C48.310546,32.7089838 48.4863272,32.4453119 48.4863272,32.0937494 L48.4863272,28.5781245 C48.4863272,28.0507808 48.0468741,27.6992183 47.607421,27.6992183 L40.5761712,27.6992183 L40.5761712,23.8320309 L47.9589835,20.5800779 Z M31.6992183,49.671874 C28.7988278,49.671874 26.4257809,47.2988272 26.4257809,44.3984366 C26.4257809,41.4980461 28.7988278,39.1249993 31.6992183,39.1249993 C34.5996089,39.1249993 36.9726557,41.4980461 36.9726557,44.3984366 C36.9726557,47.2988272 34.6874995,49.671874 31.6992183,49.671874 Z M31.6992183,37.3671868 C28.7988278,37.3671868 26.4257809,34.99414 26.4257809,32.0937494 C26.4257809,29.1933589 28.7988278,26.8203121 31.6992183,26.8203121 C34.5996089,26.8203121 36.9726557,29.1933589 36.9726557,32.0937494 C36.9726557,34.99414 34.6874995,37.3671868 31.6992183,37.3671868 Z M31.6992183,25.0624996 C28.7988278,25.0624996 26.4257809,22.6894528 26.4257809,19.7890623 C26.4257809,16.8886717 28.7988278,14.5156249 31.6992183,14.5156249 C34.5996089,14.5156249 36.9726557,16.8886717 36.9726557,19.7890623 C36.9726557,22.6894528 34.6874995,25.0624996 31.6992183,25.0624996 Z" id="path-1"></path>
    </defs>
    <g id="Industries" stroke="none" stroke-width="1" fill="none" fill-rule="evenodd">
        <g id="assets_industries" transform="translate(-540.000000, -2874.000000)">
            <g id="icn-traffic-active" transform="translate(525.000000, 2863.000000)">
                <mask id="mask-2" fill="white">
                    <use xlink:href="#path-1"></use>
                </mask>
                <use id="Shape" fill="#FF4181" fill-rule="nonzero" xlink:href="#path-1"></use>
            </g>
        </g>
    </g>
</svg>