<?xml version="1.0" encoding="UTF-8"?>
<svg width="20px" height="20px" viewBox="0 0 20 20" version="1.1" xmlns="http://www.w3.org/2000/svg" xmlns:xlink="http://www.w3.org/1999/xlink">
    <!-- Generator: sketchtool 60.1 (101010) - https://sketch.com -->
    <title>B230A058-A1C6-4CE6-88BA-4EF0D1D5199B</title>
    <desc>Created with sketchtool.</desc>
    <g id="Symbols" stroke="none" stroke-width="1" fill="none" fill-rule="evenodd">
        <g id="Icons/Editors-Pick" fill="#FF4181">
            <path d="M10.3407587,9.48948506e-16 C7.48009359,0.00369889806 4.88142388,1.69596867 3.67987638,4.33760774 C2.47832888,6.97924681 2.89222045,10.0902788 4.74075882,12.3117717 L4.74075882,18.4836839 C4.74075882,18.9432848 4.95341743,19.3760637 5.31475881,19.6518242 C5.66494891,19.9203996 6.12021091,20.0024608 6.53975879,19.8726312 L9.64075873,18.9146137 C10.0142769,18.8023131 10.4117406,18.8023131 10.7852587,18.9146137 L14.1417587,19.8975611 C14.271881,19.9324245 14.4062632,19.9480176 14.5407587,19.9438593 C14.8403744,19.9433505 15.1316334,19.8433104 15.3702586,19.658947 C15.7327236,19.3877068 15.9449867,18.9557329 15.9407586,18.4979295 L15.9407586,12.5112103 C15.9394384,12.4534274 15.9312113,12.3960229 15.9162586,12.3402629 C17.7799396,10.1231579 18.2064706,7.0056846 17.0088112,4.35490313 C15.8111518,1.70412165 13.2079535,0.00397359236 10.3407587,0 L10.3407587,9.48948506e-16 Z M14.5407587,13.6081226 L14.5407587,18.5192979 L11.1877587,17.5363506 C10.5560842,17.3464795 9.88393329,17.3464795 9.25225874,17.5363506 L6.14075879,18.4836839 L6.14075879,13.6081226 C8.66137966,15.408067 12.0201378,15.408067 14.5407587,13.6081226 Z M12.6184202,5.22290688 C12.9489781,4.90966171 13.443337,4.92868638 13.7531278,5.26657443 C14.0629187,5.60446247 14.0837437,6.14734751 13.8009277,6.51266473 L13.8009277,6.51266473 L9.96091206,10.7307696 C9.80416232,10.9031446 9.5914593,11 9.36965829,11 C9.14785727,11 8.93515425,10.9031446 8.77840451,10.7307696 L8.77840451,10.7307696 L7.24490533,9.05546133 C6.91836489,8.69676961 6.91836489,8.11521543 7.24490533,7.75652372 C7.57144577,7.397832 8.10087243,7.397832 8.42741288,7.75652372 L8.42741288,7.75652372 L9.36756905,8.78924797 Z"></path>
        </g>
    </g>
</svg>