<?xml version="1.0" encoding="UTF-8"?>
<svg width="20px" height="20px" viewBox="0 0 20 20" version="1.1" xmlns="http://www.w3.org/2000/svg" xmlns:xlink="http://www.w3.org/1999/xlink">
    <!-- Generator: sketchtool 60.1 (101010) - https://sketch.com -->
    <title>F90C8EE6-784A-49BE-8B2D-3985E942EAC2</title>
    <desc>Created with sketchtool.</desc>
    <g id="Symbols" stroke="none" stroke-width="1" fill="none" fill-rule="evenodd">
        <g id="Icons/Star" fill="#FF4181">
            <path d="M10,14.75 L6.20951226,16.7427773 C5.72066767,16.9997781 5.11604051,16.8118316 4.85903971,16.322987 C4.75670064,16.1283266 4.72138596,15.9053585 4.75856281,15.6886009 L5.48248155,11.4678307 L5.48248155,11.4678307 L2.41591255,8.47866472 C2.02042897,8.09316351 2.01233666,7.46005024 2.39783787,7.06456666 C2.55134648,6.90708303 2.75248889,6.80459585 2.97012592,6.77297134 L7.20802005,6.15716928 L7.20802005,6.15716928 L9.10326392,2.31698575 C9.34768622,1.82173209 9.94731205,1.61839309 10.4425657,1.86281539 C10.6397783,1.96014562 10.7994058,2.11977315 10.8967361,2.31698575 L12.7919799,6.15716928 L12.7919799,6.15716928 L17.0298741,6.77297134 C17.5764189,6.85238896 17.9551004,7.35983181 17.8756828,7.90637667 C17.8440583,8.1240137 17.7415711,8.32515611 17.5840875,8.47866472 L14.5175185,11.4678307 L14.5175185,11.4678307 L15.2414372,15.6886009 C15.3347982,16.2329373 14.9692104,16.7498932 14.4248739,16.8432542 C14.2081163,16.8804311 13.9851482,16.8451164 13.7904877,16.7427773 L10,14.75 L10,14.75 Z"></path>
        </g>
    </g>
</svg>