<?xml version="1.0" encoding="UTF-8"?>
<svg width="513px" height="334px" viewBox="0 0 513 334" version="1.1" xmlns="http://www.w3.org/2000/svg" xmlns:xlink="http://www.w3.org/1999/xlink">
    <!-- Generator: sketchtool 63.1 (101010) - https://sketch.com -->
    <title>C089331B-F560-4400-A49A-AD2C23147B06</title>
    <desc>Created with sketchtool.</desc>
    <defs>
        <linearGradient x1="50%" y1="65.0464415%" x2="50%" y2="-85.040653%" id="linearGradient-1">
            <stop stop-color="#F5F8FF" offset="0%"></stop>
            <stop stop-color="#4572E2" offset="100%"></stop>
        </linearGradient>
        <linearGradient x1="58.784183%" y1="39.6211581%" x2="32.806485%" y2="51.3165863%" id="linearGradient-2">
            <stop stop-color="#EDF2FF" offset="0%"></stop>
            <stop stop-color="#FFFFFF" offset="100%"></stop>
        </linearGradient>
        <linearGradient x1="26.8282224%" y1="50%" x2="73.1666987%" y2="44.213013%" id="linearGradient-3">
            <stop stop-color="#ECF1FF" offset="0%"></stop>
            <stop stop-color="#B2BFE2" offset="100%"></stop>
        </linearGradient>
    </defs>
    <g id="Industries" stroke="none" stroke-width="1" fill="none" fill-rule="evenodd">
        <g id="assets_industries" transform="translate(-547.000000, -1697.000000)">
            <g id="img-engineers-silhouette" transform="translate(545.000000, 1690.000000)">
                <g id="img-blueprints" transform="translate(0.000000, 280.000000)">
                    <path d="M43.4916992,36 C40.4249674,40.1979167 37.0472005,43.6928711 33.3583984,46.4848633 C29.6695964,49.2768555 24.8834635,51.6738281 19,53.6757813 C32.9782959,57.4970703 48.9797607,59.4077148 67.0043945,59.4077148 C85.0290283,59.4077148 102.275551,59.6482747 118.743961,60.1293945 L101.98584,36 L43.4916992,36 Z" id="Path-65-Copy" fill="url(#linearGradient-1)"></path>
                    <path d="M46.9024548,34.0952148 C49.055124,39.9560058 51.8056123,45.0525512 55.1539196,49.3848511 C58.5022269,53.7171509 60.4477022,56.285319 60.9903454,57.0893555 C68.8627412,53.5419433 77.120391,50.9737752 85.7632946,49.3848511 C94.4061983,47.7959269 113.228138,43.873278 142.229115,37.6169043 C130.417917,37.6169043 121.467873,36.4430078 115.378983,34.0952148 C109.290093,31.7474219 104.792708,28.9986694 101.88683,25.8489575 L46.9024548,34.0952148 Z" id="Path-66-Copy" fill="url(#linearGradient-2)"></path>
                    <polygon id="Path-64-Copy" fill="url(#linearGradient-3)" points="5.83177617 27.1424261 118.361439 9.3515625 112.830189 21.0693359 9.94493523 47.6347656"></polygon>
                    <ellipse id="Oval-Copy-181" fill="#89ABFF" transform="translate(8.250000, 37.616904) rotate(-13.000000) translate(-8.250000, -37.616904) " cx="8.25" cy="37.6169043" rx="5.75" ry="10.75"></ellipse>
                    <g id="Group-8" transform="translate(22.932857, 0.000000)">
                        <path d="M102.247341,27.7978516 L51.3781418,16.9132692 C50.2415215,15.0001155 49.6732114,13.1143234 49.6732114,11.2558928 C49.6732114,9.39746217 50.8098317,7.74478177 53.0830723,6.29785156 L103.673211,9.33663302 L102.247341,27.7978516 Z" id="Path-61-Copy-2" fill="#6891F6"></path>
                        <path d="M90.0057653,32.4848117 L3.51061371,15.8415527 C0.969760842,13.9307454 -0.191860251,11.1472982 0.0257504256,7.49121094 C0.243361103,3.8351237 2.1886736,1.33805339 5.86168793,0 L92.4461261,4.59136016 L90.0057653,32.4848117 Z" id="Path-61-Copy-3" fill="#ECF1FF"></path>
                        <path d="M100.05285,4.92773437 C102.786922,5.85240985 107.343377,8.44180109 107.343377,15.3271484 C107.343377,19.91738 105.779392,24.074281 102.651422,27.7978516 L90.632684,24.9709473 L92.4461261,4.59136016 C95.6945606,4.19915932 98.2301352,4.31128406 100.05285,4.92773437 Z" id="Path-63-Copy" fill="#799FFF"></path>
                        <ellipse id="Oval-Copy-187" fill="#B3C9FF" transform="translate(91.225946, 18.538086) rotate(5.000000) translate(-91.225946, -18.538086) " cx="91.2259457" cy="18.5380859" rx="6.75" ry="14"></ellipse>
                        <ellipse id="Oval-Copy-188" fill="#89ABFF" transform="translate(102.650471, 18.568689) rotate(5.000000) translate(-102.650471, -18.568689) " cx="102.650471" cy="18.5686892" rx="4.13815789" ry="9.25"></ellipse>
                    </g>
                </g>
                <g id="img-female-engineer" transform="translate(320.000000, 7.000000)">
                    <path d="M1.0658141e-13,54.4183893 C2.63426237,55.0185921 5.29162302,56.8437092 7.97208196,59.8937407 C10.6525409,62.9437722 22.8996024,79.3518949 44.7132665,109.118109 L62.9360162,95.5238988 L76.6342893,84.8039181 C56.2326653,56.134007 44.6382912,41.0660343 41.8511671,39.6 C39.0640429,38.1339657 28.5403109,41.7178593 10.2799709,50.3516807 L1.0658141e-13,54.4183893 Z" id="Path-18" fill="#FFFFFF"></path>
                    <g id="Group-5" transform="translate(11.680598, 0.000000)">
                        <g id="A-Human/Sitting-Copy" transform="translate(120.000000, 175.100000) scale(-1, 1) translate(-120.000000, -175.100000) translate(0.000000, 16.600000)">
                            <g id="Head/Front" transform="translate(70.400000, 0.000000)">
                                <g id="Head" transform="translate(38.400000, 0.964873)" fill="#B28B67">
                                    <path d="M30.5146731,7.29679627 C35.1505217,15.9254545 34.5996624,37.8127615 28.6082411,39.3549434 C26.218893,39.9699577 21.1288966,38.463439 15.9484437,35.3453976 L19.2,58.3172805 L0,58.3172805 L6.60977163,27.5529635 C2.92347006,23.2321018 0.428509625,17.9368339 0.845421067,12.0033371 C2.04666418,-5.09279264 25.8788245,-1.33186192 30.5146731,7.29679627 Z"></path>
                                </g>
                                <path d="M52.6324824,0.168925488 C61.4636554,-0.139028988 68.6978667,1.75600193 68.7902532,4.40160578 C68.8765658,6.8732747 62.6991386,9.12561826 54.6851317,9.66221597 C55.018661,10.9154469 55.2,12.339017 55.2,13.9477069 C55.2,15.3681584 55.0430024,16.8746217 54.7539156,18.4042298 C54.0081508,17.5194259 53.0115371,16.9422096 52,16.9422096 C49.1699471,16.9422096 47.2,19.2670313 47.2,21.7354108 C47.2,24.8677509 49.0106256,27.133886 51.6539146,27.3156853 C49.2742426,31.8792545 45.9812788,35.3161473 42.6914706,35.3161473 C36.4428982,35.3161473 32,26.973804 32,18.004358 C32,17.6891476 32.0062559,17.3760346 32.0185992,17.0652608 C25.4090934,21.5942325 20.3148904,30.5229462 11.5685964,30.5229462 C-0.330216672,30.5229462 -5.0557314,6.55694051 11.5685964,6.55694051 C22.8745531,6.55694051 28.4358092,8.20303443 33.2285709,10.6372079 C34.1744378,7.97376232 35.6175118,5.73482663 37.3821398,4.17221329 C37.8061781,3.69606945 38.4567451,3.24051394 39.2955383,2.81820156 C39.8052339,2.53998077 40.3314657,2.31370726 40.8722006,2.14295664 C43.7621858,1.08142717 47.9519337,0.332142374 52.6324824,0.168925488 Z" id="hair" fill="#191847"></path>
                            </g>
                            <g id="Bottom/Standing/Skinny-Jeans" transform="translate(0.000000, 125.588102)">
                                <polygon id="Leg" fill="#191847" points="102.4 7.94680657e-14 131.40397 101.637361 152.565566 176.549575 168 176.549575 145.512779 7.94680657e-14"></polygon>
                                <path d="M94.6434737,0 C93.9726147,52.3850744 91.6849979,80.9573175 90.9806234,85.7167293 C90.2762489,90.4761411 79.6257375,120.753756 59.0290891,176.549575 L75.0181174,176.549575 C101.239227,123.023021 115.876521,92.7454054 118.929999,85.7167293 C121.983478,78.6880532 131.406812,50.1158101 145.6,0 L94.6434737,0 Z" id="Leg" fill="#2F3676"></path>
                                <g id="Accessories/Shoe/Flat-Pointy" transform="translate(57.600000, 158.974504)" fill="#191847">
                                    <path d="M0,31.9546742 L0.8,15.1784703 L17.6,15.1784703 C25.5660826,20.7705382 35.9660826,25.2974504 48.8,28.7592068 L48.8,31.9546742 L18.4,31.9546742 L8,30.3569405 L8,31.9546742 L0,31.9546742 Z" id="Shoe"></path>
                                </g>
                                <g id="Accessories/Shoe/Flat-Pointy" transform="translate(150.400000, 158.974504)" fill="#191847">
                                    <path d="M0,31.9546742 L0.8,15.1784703 L17.6,15.1784703 C25.5660826,20.7705382 35.9660826,25.2974504 48.8,28.7592068 L48.8,31.9546742 L18.4,31.9546742 L8,30.3569405 L8,31.9546742 L0,31.9546742 Z" id="Shoe"></path>
                                </g>
                            </g>
                            <g id="Body/Pointing-Forward" transform="translate(17.600000, 41.707082)">
                                <path d="M190.845105,37.0736394 C194.31134,36.3610484 202.771429,30.0778873 204.229145,31.3536064 C206.385741,33.2409506 204.462787,39.0361911 202.197091,41.9190129 C197.962507,47.3070032 194.456455,49.1495333 185.790702,51.5623376 C181.259799,52.8238762 176.361091,55.3525218 171.094579,59.1482743 L170.4,46.925311 L182.597218,40.2342953 C184.308661,33.7312828 186.354482,30.4593973 188.734681,30.4186388 C190.563169,29.5690667 187.37887,37.7862304 190.845105,37.0736394 Z M169.851841,9.2201274 C167.612225,13.1895945 165.43526,17.4654594 166.576256,18.6883664 C167.717252,19.9112733 170.562429,18.2029262 171.92362,20.2347964 C172.831081,21.5893766 167.970322,23.7292319 157.341343,26.6543623 L137.164634,45.1021391 L126.910432,34.1118006 L154.678257,18.9250135 C159.295876,13.4493407 163.845517,9.19671362 168.327181,6.1671322 C169.696633,5.59621821 172.091457,5.25066027 169.851841,9.2201274 Z" id="Skin" fill="#997659"></path>
                                <path d="M114.285631,27.7565365 C123.908017,29.1766913 137.038995,29.1795651 152.079669,22.6805212 L155.55426,35.4844915 C144.646249,43.3346372 130.173497,48.9117163 118.633409,46.7507217 C109.539183,45.0477388 106.618097,33.2746146 114.285631,27.7565365 Z" id="Sleeve" fill="#2026A2" transform="translate(132.719000, 34.949983) rotate(-9.000000) translate(-132.719000, -34.949983) "></path>
                                <path d="M114.035,-3.91503009e-14 C115.259747,15.7127532 121.424184,33.0295508 126.483245,50.1373002 C136.808553,52.7093702 154.123751,49.6769431 178.428747,41.0405232 C184.457339,53.4949357 187.244206,62.3739767 186.789348,67.6776462 C165.937026,78.5546645 148.065127,83.4034793 133.341512,83.7225809 C133.814831,92.4429685 132.75178,100.745205 129.179146,108.331112 C121.835744,123.923634 78.8360462,109.48322 64.3782301,112.325446 C55.3243205,82.9633776 72.8303286,71.0307517 72.8444142,52.2431888 C72.8598394,31.6688054 89.4035281,-3.91503009e-14 91.8376005,-3.91503009e-14 L91.8376005,-3.91503009e-14 Z" id="Clothes" fill="#1F28CF"></path>
                            </g>
                        </g>
                        <g id="noun_Helmet_1612618" transform="translate(96.000000, 0.000000)" fill="#E7B258" fill-rule="nonzero">
                            <path d="M38.3459794,22.8 L2.45402677,22.8 C1.9010275,15.0226667 5.63702256,7.73376 11.6515146,4.04472 L12.919013,15.5369333 C13.0105128,16.37192 13.7525118,16.97992 14.5755108,16.8785867 C15.4,16.7858667 15.9925089,16.0339733 15.9,15.2 L14.409511,1.68416 C14.366511,1.25805333 14.5025109,0.831946667 14.7830105,0.5168 C15.0760101,0.188986667 15.4970095,0 15.940009,0 L24.8594972,0 C25.3024966,0 25.723996,0.18848 26.0159957,0.5168 C26.2969953,0.832453333 26.4339951,1.25298667 26.3929952,1.65832 L24.9,15.2 C24.8074973,16.0339733 25.4,16.7858667 26.2239954,16.8785867 C27.0399943,16.97536 27.7884933,16.3754667 27.8804932,15.5369333 L29.1479915,4.04472 C35.1624836,7.73426667 38.8989787,15.0226667 38.3459794,22.8 Z" id="Path"></path>
                            <path d="M42,25.2 C42,26.5232 40.9905,27.6 39.75,27.6 L2.25,27.6 C1.0095,27.6 0,26.5232 0,25.2 C0,23.8768 1.0095,22.8 2.25,22.8 L39.75,22.8 C40.9905,22.8 42,23.8768 42,25.2 Z" id="Path"></path>
                        </g>
                    </g>
                </g>
                <g id="img-male-engineer" transform="translate(94.000000, 0.000000)">
                    <g id="A-Human/Sitting">
                        <g id="Head/Front/Short-Beard" transform="translate(65.600000, 0.000000)">
                            <g id="Head" stroke-width="1" transform="translate(43.200000, 24.764873)" fill="#B28B67">
                                <path d="M30.5146731,7.29679627 C35.1505217,15.9254545 34.5996624,37.8127615 28.6082411,39.3549434 C26.218893,39.9699577 21.1288966,38.463439 15.9484437,35.3453976 L19.2,58.3172805 L0,58.3172805 L6.60977163,27.5529635 C2.92347006,23.2321018 0.428509625,17.9368339 0.845421067,12.0033371 C2.04666418,-5.09279264 25.8788245,-1.33186192 30.5146731,7.29679627 Z"></path>
                            </g>
                            <path d="M63.3056467,23.6628926 C68.6927689,24.1243121 73.5032106,25.764665 74.8665284,26.7388301 C74.8665284,31.8317855 73.8782961,33.3428504 65.4374445,33.2096556 C63.3634682,34.3034105 61.7690819,36.1868255 60.1084311,38.6560338 C60.8429637,48.8789529 62.7871364,53.9911717 65.9406332,53.9911717 C70.6708783,53.9911717 74.6841552,50.9925057 76.7596732,50.9925057 C78.2726553,50.9925057 77.9348529,52.8831808 76.9319692,54.2849821 C76.1045578,55.4415132 72.0751339,56.556271 72.0751339,58.3492826 C72.0751339,60.1422943 75.258713,58.75514 75.258713,59.8185402 C75.258713,61.5775338 75.8182223,64.8847564 72.7609793,64.8847564 C69.6669474,64.8847564 60.79581,63.7588289 59.2755373,59.173244 C58.2945055,56.2141666 57.6601599,50.0827531 57.3725005,40.7790034 C57.1851677,40.7536937 56.9939269,40.7422096 56.8,40.7422096 C54.1490332,40.7422096 52,42.8881989 52,45.5354108 C52,46.8792792 52.5538335,48.0939761 53.446012,48.9643182 C52.3353571,50.5297795 51.0906315,52.1651134 49.664309,53.8525655 C44.3059243,50.6423063 40.3296981,41.244674 45.5683889,32.2169249 C47.0163795,27.794371 50.2944277,25.4321187 54.1658814,24.3352492 C57.3019585,23.0252763 60.5575033,22.8775757 63.3056467,23.6628926 Z" id="Hair" fill="#191847"></path>
                        </g>
                        <g id="Bottom/Standing/Sweatpants" transform="translate(0.000000, 149.388102)">
                            <polygon id="Leg" fill="#997659" points="102.4 7.94680657e-14 131.70467 100.838494 145.488123 176.549575 159.322557 176.549575 145.512779 7.94680657e-14"></polygon>
                            <path d="M89.2301819,0 C91.274964,52.3850744 90.4685317,80.9573175 90.010885,85.7167293 C89.5532383,90.4761411 86.9551442,122.35149 69.2509499,178.147309 L83.6399782,178.147309 C107.086272,124.620754 115.271149,92.7454054 117.960261,85.7167293 C120.649373,78.6880532 128.591522,50.1158101 140.186708,0 L89.2301819,0 Z" id="Leg" fill="#B28B67"></path>
                            <path d="M101.770911,9.08206466e-14 C109.393513,34.698802 122.577347,90.086904 141.322413,166.164306 L161.556847,166.164306 C163.051391,88.0781289 156.693672,36.6843612 145.68369,9.08206466e-14 L101.770911,9.08206466e-14 Z" id="Pant" fill="#1F28CF"></path>
                            <path d="M89.127935,0 C91.1305316,52.3850744 85.9406755,103.994295 69.8644062,166.979915 L91.4534346,166.979915 C114.942833,114.252228 131.778442,62.8976798 143.284461,0 L89.127935,0 Z" id="Pant" fill="#2B44FF"></path>
                            <g id="Accessories/Shoe/Flat-Simple" transform="translate(67.200000, 158.974504)" fill="#191847">
                                <path d="M0,29.5580737 L0.793938136,16.776204 C5.44233432,18.1338184 11.2645473,17.6012405 18.2605771,15.1784703 C25.5937195,20.365528 34.7774217,23.9487921 45.8116835,25.9282627 C47.1163395,26.1623097 47.9842402,27.4096745 47.7501939,28.7143306 C47.7361831,28.7924314 47.7183078,28.8697893 47.6966338,28.9461193 L46.84235,31.9546742 L46.84235,31.9546742 L18.2605771,31.9546742 L1.58787627,31.9546742 L0,29.5580737 Z" id="Shoe"></path>
                            </g>
                            <g id="Accessories/Shoe/Flat-Simple" transform="translate(142.400000, 158.974504)" fill="#191847">
                                <path d="M0,29.5580737 L0.793938136,16.776204 C5.44233432,18.1338184 11.2645473,17.6012405 18.2605771,15.1784703 C25.5937195,20.365528 34.7774217,23.9487921 45.8116835,25.9282627 C47.1163395,26.1623097 47.9842402,27.4096745 47.7501939,28.7143306 C47.7361831,28.7924314 47.7183078,28.8697893 47.6966338,28.9461193 L46.84235,31.9546742 L46.84235,31.9546742 L18.2605771,31.9546742 L1.58787627,31.9546742 L0,29.5580737 Z" id="Shoe"></path>
                            </g>
                        </g>
                        <g id="Body/Jacket-2" transform="translate(17.600000, 65.507082)">
                            <path d="M41.2066263,65.5070822 L57.6,68.7551506 C41.1136659,99.4358034 32.2723411,115.696567 31.0760255,117.537442 C28.3843155,121.67941 30.8957354,129.270428 31.8234434,133.267911 C26.0035235,134.620744 28.2987212,125.87346 20.933725,127.699814 C14.211298,129.366824 8.51149054,133.644968 2.24310272,127.875209 C1.47244127,127.165851 0.908280655,124.948598 3.53585592,123.81138 C10.0821041,120.978156 19.7536345,115.672999 21.3218739,113.613324 C23.4604486,110.804588 30.0886994,94.769174 41.2066263,65.5070822 Z M203.350534,40.9460552 C200.772988,44.7054984 198.231112,48.775626 199.261031,50.0931829 C200.290951,51.4107398 203.274405,49.9565158 204.453076,52.0991217 C205.238856,53.5275257 200.209829,55.2361952 189.365993,57.2251302 L167.655952,73.8466824 L158.4,62.0057187 L187.387654,49.2934194 C192.465615,44.2404652 197.36911,40.3999864 202.098139,37.7719828 C203.512209,37.3224279 205.928081,37.186612 203.350534,40.9460552 Z" id="Skin" fill="#B28B67"></path>
                            <path d="M98.6291841,7.89560446 L105.417292,6.11234216 C121.699437,19.3389704 130.880887,53.7346997 141.288556,57.4833207 C151.128585,61.0274902 164.165277,55.624211 179.601642,48.5179312 L185.434602,58.9795349 C172.32368,75.889092 142.633068,91.8035624 129.469467,85.3528753 C108.423606,75.0395675 100.039401,32.3603748 98.6291841,7.89560446 Z" id="Coat-Back" fill="#AFB9C5" transform="translate(142.031893, 46.466218) rotate(5.000000) translate(-142.031893, -46.466218) "></path>
                            <path d="M72,91.0708215 C99.7374047,91.0708215 120.140458,91.0708215 133.209161,91.0708215 C136.006107,91.0708215 135.479076,87.0378517 135.07476,85.0027931 C130.40847,61.5157566 112.193043,36.1978679 112.193043,2.76466273 L94.5374401,0 C79.933988,23.4534581 74.883861,52.3294138 72,91.0708215 Z" id="Shirt" fill="#DDE3E9"></path>
                            <path d="M100.389118,-7.56838721e-14 C116.239138,53.9530291 120.608708,89.9020376 113.497828,107.847025 L113.497828,107.847025 L58.4,107.847025 C59.2717617,94.7155188 62.0670968,80.8284197 65.8957851,67.2883253 C53.4179299,89.7656639 42.92909,105.948083 34.4299561,115.835694 L21.6,113.326309 C29.8644742,62.1443897 53.7972884,24.3689532 93.3984427,-1.53843573e-13 Z" id="Coat-Front" fill="#DDE3E9"></path>
                        </g>
                    </g>
                    <g id="noun_Helmet_1612618-Copy" transform="translate(104.400000, 7.200000)" fill="#E7B258" fill-rule="nonzero">
                        <path d="M38.3459794,22.8 L2.45402677,22.8 C1.9010275,15.0226667 5.63702256,7.73376 11.6515146,4.04472 L12.919013,15.5369333 C13.0105128,16.37192 13.7525118,16.97992 14.5755108,16.8785867 C15.4,16.7858667 15.9925089,16.0339733 15.9,15.2 L14.409511,1.68416 C14.366511,1.25805333 14.5025109,0.831946667 14.7830105,0.5168 C15.0760101,0.188986667 15.4970095,0 15.940009,0 L24.8594972,0 C25.3024966,0 25.723996,0.18848 26.0159957,0.5168 C26.2969953,0.832453333 26.4339951,1.25298667 26.3929952,1.65832 L24.9,15.2 C24.8074973,16.0339733 25.4,16.7858667 26.2239954,16.8785867 C27.0399943,16.97536 27.7884933,16.3754667 27.8804932,15.5369333 L29.1479915,4.04472 C35.1624836,7.73426667 38.8989787,15.0226667 38.3459794,22.8 Z" id="Path"></path>
                        <path d="M42,25.2 C42,26.5232 40.9905,27.6 39.75,27.6 L2.25,27.6 C1.0095,27.6 0,26.5232 0,25.2 C0,23.8768 1.0095,22.8 2.25,22.8 L39.75,22.8 C40.9905,22.8 42,23.8768 42,25.2 Z" id="Path"></path>
                    </g>
                </g>
            </g>
        </g>
    </g>
</svg>