<?xml version="1.0" encoding="UTF-8"?>
<svg width="250px" height="207px" viewBox="0 0 250 207" version="1.1" xmlns="http://www.w3.org/2000/svg" xmlns:xlink="http://www.w3.org/1999/xlink">
    <!-- Generator: sketchtool 63.1 (101010) - https://sketch.com -->
    <title>DAD9182C-19F3-4B66-8866-6497E6E567E7</title>
    <desc>Created with sketchtool.</desc>
    <g id="Industries" stroke="none" stroke-width="1" fill="none" fill-rule="evenodd">
        <g id="assets_industries" transform="translate(-96.000000, -1770.000000)">
            <g id="img-engineers-silhouette-mobile" transform="translate(85.000000, 1766.000000)">
                <g id="img-female-engineer" transform="translate(140.000000, 4.000000)">
                    <path d="M6.59789683e-14,33.726367 C1.63073385,34.098349 3.27576663,35.2294844 4.93509836,37.1197734 C6.59443008,39.0100624 14.1759444,49.1791684 27.6796412,67.6270915 L38.960391,59.2019373 L47.4402744,52.5581169 C34.8106976,34.789639 27.6332279,25.4511051 25.9078653,24.542515 C24.1825028,23.6339249 17.6678115,25.8550805 6.36379149,31.2059817 L6.59789683e-14,33.726367 Z" id="Path-18" fill="#FFFFFF"></path>
                    <g id="Group-5" transform="translate(6.230846, 0.000000)">
                        <g id="A-Human/Sitting-Copy" transform="translate(75.071429, 108.788024) scale(-1, 1) translate(-75.071429, -108.788024) translate(0.571429, 10.288024)">
                            <g id="Head/Front" transform="translate(43.580952, 0.000000)">
                                <g id="Head" transform="translate(23.771429, 0.597990)" fill="#B28B67">
                                    <path d="M18.8900357,4.52226595 C21.7598468,9.86996729 21.4188386,23.4348552 17.7098635,24.3906386 C16.2307311,24.7718033 13.0797409,23.8381039 9.87276637,21.9056325 L11.8857143,36.1427457 L0,36.1427457 L4.09180728,17.0762893 C1.80978698,14.3983806 0.265266209,11.1165643 0.523355899,7.43919395 C1.26698259,-3.15631161 16.0202247,-0.825435382 18.8900357,4.52226595 Z"></path>
                                </g>
                                <path d="M32.5820129,0.104693465 C38.0489278,-0.0862154083 42.527185,1.08830294 42.5844425,2.7279413 C42.6379404,4.25992039 38.8130671,5.65590536 33.8513547,5.98834094 C34.0590537,6.76404014 34.1714286,7.64671384 34.1714286,8.64423753 C34.1714286,9.5250133 34.0741433,10.4591487 33.895015,11.4076232 C33.4345182,10.8583704 32.8171231,10.500112 32.1904762,10.500112 C30.4385387,10.500112 29.2190476,11.9409446 29.2190476,13.4707486 C29.2190476,15.4122683 30.3401641,16.8168272 31.976787,16.9292203 C30.5029245,19.7576881 28.4645122,21.8875524 26.4280532,21.8875524 C22.5598893,21.8875524 19.8095238,16.7172977 19.8095238,11.1583895 C19.8095238,10.9636593 19.8133718,10.7702206 19.8209644,10.578222 C15.7288502,13.3842846 12.5753793,18.9169157 7.16151206,18.9169157 C-0.204419845,18.9169157 -3.12973849,4.06373259 7.16151206,4.06373259 C14.1607305,4.06373259 17.6034081,5.08400194 20.5704402,6.59271045 C21.1563568,4.93965718 22.0513182,3.55050541 23.145734,2.58186704 C23.4080633,2.28718715 23.812222,2.00475321 24.3329942,1.74299301 C24.6447436,1.57290355 24.9662671,1.43459757 25.2965456,1.32979624 C27.0855861,0.671196419 29.6815857,0.205978616 32.5820129,0.104693465 Z" id="hair" fill="#191847"></path>
                            </g>
                            <g id="Bottom/Standing/Skinny-Jeans" transform="translate(0.000000, 77.834542)">
                                <polygon id="Leg" fill="#191847" points="63.3904762 4.92511665e-14 81.3453146 62.9908195 94.4453503 109.418449 104 109.418449 90.0793395 4.92511665e-14"></polygon>
                                <path d="M58.588817,0 C58.1735234,32.4661988 56.7573797,50.1741459 56.3213383,53.1238412 C55.885297,56.0735365 49.2921232,74.8384059 36.541817,109.418449 L46.439787,109.418449 C62.6719022,76.2448062 71.7330842,57.4799368 73.623333,53.1238412 C75.5135818,48.7677456 81.347074,31.0597985 90.1333333,0 L58.588817,0 Z" id="Leg" fill="#2F3676"></path>
                                <g id="Accessories/Shoe/Flat-Pointy" transform="translate(35.657143, 98.526115)" fill="#191847">
                                    <path d="M0,19.8042442 L0.495238095,9.407016 L10.8952381,9.407016 C15.8266226,12.8727587 22.2647178,15.67836 30.2095238,17.8238198 L30.2095238,19.8042442 L11.3904762,19.8042442 L4.95238095,18.814032 L4.95238095,19.8042442 L0,19.8042442 Z" id="Shoe"></path>
                                </g>
                                <g id="Accessories/Shoe/Flat-Pointy" transform="translate(93.104762, 98.526115)" fill="#191847">
                                    <path d="M0,19.8042442 L0.495238095,9.407016 L10.8952381,9.407016 C15.8266226,12.8727587 22.2647178,15.67836 30.2095238,17.8238198 L30.2095238,19.8042442 L11.3904762,19.8042442 L4.95238095,18.814032 L4.95238095,19.8042442 L0,19.8042442 Z" id="Shoe"></path>
                                </g>
                            </g>
                            <g id="Body/Pointing-Forward" transform="translate(10.895238, 25.848401)">
                                <path d="M118.142208,22.9767765 C120.287972,22.5351408 125.52517,18.6410859 126.427566,19.4317261 C127.762601,20.6014275 126.572202,24.1930885 125.169628,25.9797475 C122.548219,29.319011 120.377805,30.4609383 115.013292,31.956299 C112.208447,32.7381508 109.175914,34.3053054 105.915692,36.6577628 L105.485714,29.0824532 L113.036373,24.9356261 C114.095838,20.905316 115.362298,18.8775306 116.835755,18.8522702 C117.967676,18.325739 115.996443,23.4184122 118.142208,22.9767765 Z M105.146378,5.71427058 C103.759949,8.17438943 102.412304,10.8244015 103.118635,11.5823109 C103.824966,12.3402203 105.586265,11.2814543 106.428908,12.5407271 C106.990669,13.3802424 103.981628,14.7064401 97.4017838,16.5193204 L84.91144,27.9525233 L78.5636005,21.1411459 L95.7532067,11.7289754 C98.6117329,8.33536984 101.428177,5.69975964 104.20254,3.82214481 C105.050296,3.46831488 106.532807,3.25415172 105.146378,5.71427058 Z" id="Skin" fill="#997659"></path>
                                <path d="M70.7486287,17.2045827 C76.7053554,18.0836539 84.8342847,18.0839887 94.1461567,14.0545949 L96.2957442,21.9893836 C89.5421109,26.8556581 80.5819219,30.3136081 73.4380941,28.9756178 C67.8083641,27.9212077 66.0013186,20.6252177 70.7486287,17.2045827 Z" id="Sleeve" fill="#2026A2" transform="translate(82.159193, 21.660061) rotate(-9.000000) translate(-82.159193, -21.660061) "></path>
                                <path d="M70.5930951,-2.29661114e-14 C71.3512829,9.73828586 75.1674634,20.4707242 78.2992893,31.0735824 C84.6908363,32.6672148 95.4098201,30.7878491 110.455891,25.4352943 C114.187876,33.154047 115.91308,38.6569257 115.631501,41.9439304 C102.723004,48.685033 91.6595072,51.6901416 82.5449215,51.887943 C82.8377615,57.2924293 82.179688,62.4378648 79.9680429,67.1393417 C75.4221274,76.8029707 48.8032667,67.8533727 39.85319,69.6148723 C34.2483889,51.4174226 45.0854415,44.0220527 45.0941612,32.3782637 C45.1037101,19.627074 55.3450412,-2.29661114e-14 56.8518479,-2.29661114e-14 L56.8518479,-2.29661114e-14 Z" id="Clothes" fill="#1F28CF"></path>
                            </g>
                        </g>
                        <g id="noun_Helmet_1612618" transform="translate(60.428571, 0.000000)" fill="#E7B258" fill-rule="nonzero">
                            <path d="M23.7379872,14.1305389 L1.51915943,14.1305389 C1.17682654,9.31045509 3.4895854,4.7930788 7.21284239,2.5067576 L7.99748421,9.62917725 C8.05412699,10.146669 8.51345972,10.5234834 9.02293523,10.460681 C9.53333932,10.4032168 9.90012455,9.93722299 9.84286272,9.42035928 L8.92017347,1.04377581 C8.89355445,0.779691737 8.97774482,0.515607665 9.15138745,0.320292216 C9.33276816,0.117126467 9.59338686,0 9.8676246,0 L15.3892125,0 C15.6634503,0 15.9243785,0.116812455 16.1051402,0.320292216 C16.2790923,0.515921677 16.3639017,0.776551617 16.3385208,1.0277612 L15.4142839,9.42035928 C15.3570221,9.93722299 15.7238073,10.4032168 16.2339019,10.460681 C16.7390441,10.5206572 17.2024006,10.1488671 17.2593529,9.62917725 L18.0439948,2.5067576 C21.7672517,4.79339281 24.0803201,9.31045509 23.7379872,14.1305389 Z" id="Path"></path>
                            <path d="M26,15.6179641 C26,16.4380311 25.3750714,17.1053892 24.6071429,17.1053892 L1.39285714,17.1053892 C0.624928571,17.1053892 0,16.4380311 0,15.6179641 C0,14.797897 0.624928571,14.1305389 1.39285714,14.1305389 L24.6071429,14.1305389 C25.3750714,14.1305389 26,14.797897 26,15.6179641 Z" id="Path"></path>
                        </g>
                    </g>
                </g>
                <g id="img-male-engineer">
                    <g id="A-Human/Sitting">
                        <g id="Head/Front/Short-Beard" transform="translate(40.726667, 0.000000)">
                            <g id="Head" stroke-width="1" transform="translate(26.820000, 15.280453)" fill="#B28B67">
                                <path d="M18.9445262,4.50227855 C21.8226155,9.82634424 21.4806237,23.3312784 17.7609497,24.2828374 C16.2775505,24.6623175 13.117471,23.7327449 9.9012455,21.8088145 L11.92,35.9830028 L0,35.9830028 L4.103562,17.0007594 C1.81498561,14.3346968 0.266033231,11.0674057 0.524865579,7.40631438 C1.27063734,-3.14236142 16.0664369,-0.821787142 18.9445262,4.50227855 Z"></path>
                            </g>
                            <path d="M39.3022557,14.6005082 C42.6467607,14.8852138 45.6332432,15.8973465 46.4796364,16.4984271 C46.4796364,19.6408889 45.8661088,20.5732481 40.6257468,20.4910641 C39.338213,21.1659028 38.3483971,22.3279332 37.3174615,23.8513828 C37.77334,30.1593539 38.9803472,33.3137017 40.9381431,33.3137017 C43.8748369,33.3137017 46.366413,31.4634609 47.6549638,31.4634609 C48.5942735,31.4634609 48.3845545,32.6300477 47.7619309,33.4949889 C47.2482463,34.2085933 44.7466456,34.8964225 44.7466456,36.0027489 C44.7466456,37.1090752 46.7231177,36.2531715 46.7231177,36.909312 C46.7231177,37.9946485 47.0704797,40.0352752 45.1724413,40.0352752 C43.2515632,40.0352752 37.7440654,39.340554 36.8002294,36.5111506 C36.1911948,34.6854048 35.7973786,30.9024056 35.6187806,25.1621532 C35.5027122,25.1459113 35.3838584,25.1388102 35.2633333,25.1388102 C33.6175248,25.1388102 32.2833333,26.4629312 32.2833333,28.0963173 C32.2833333,28.9255127 32.6271716,29.6750065 33.1810658,30.2120261 C32.4915342,31.1779491 31.7187671,32.1869849 30.8332585,33.2281787 C27.5065947,31.2473805 25.0380209,25.4488414 28.2903748,19.8785281 C29.1893356,17.1497183 31.2244572,15.6921584 33.6279847,15.0153665 C35.5749659,14.2070854 37.5961166,14.115951 39.3022557,14.6005082 Z" id="Hair" fill="#191847"></path>
                        </g>
                        <g id="Bottom/Standing/Sweatpants" transform="translate(0.000000, 92.175637)">
                            <polygon id="Leg" fill="#997659" points="63.5733333 4.90334874e-14 81.7666494 62.2194963 90.3238765 108.934844 98.9127544 108.934844 90.3391838 4.90334874e-14"></polygon>
                            <path d="M55.3970712,0 C56.6665401,32.3227055 56.1658801,49.9523874 55.8817578,52.8890457 C55.5976354,55.8257041 53.9846521,75.4934726 42.9932981,109.92068 L51.9264865,109.92068 C66.4827272,76.8936569 71.5641714,57.2258884 73.2336621,52.8890457 C74.9031527,48.5522031 79.8339035,30.9225212 87.0325813,0 L55.3970712,0 Z" id="Leg" fill="#B28B67"></path>
                            <path d="M63.1827739,5.60382713e-14 C67.9151391,21.4098991 76.1001028,55.5855365 87.7376649,102.526912 L100.299876,102.526912 C101.227739,54.3460795 97.2806547,22.6350314 90.445291,5.60382713e-14 L63.1827739,5.60382713e-14 Z" id="Pant" fill="#1F28CF"></path>
                            <path d="M55.333593,0 C56.5768717,32.3227055 53.354836,64.1666926 43.3741522,103.03016 L56.7773406,103.03016 C71.3603422,70.4960554 81.8124491,38.8092067 88.9557697,0 L55.333593,0 Z" id="Pant" fill="#2B44FF"></path>
                            <g id="Accessories/Shoe/Flat-Simple" transform="translate(41.720000, 98.090652)" fill="#191847">
                                <path d="M0,18.2379603 L0.49290326,10.3512748 C3.37878256,11.1889518 6.99340646,10.8603399 11.336775,9.36543909 C15.6758209,12.4157936 21.0584722,14.5672576 27.4847289,15.8198311 C28.7857432,16.0733985 29.6348483,17.3336484 29.3812619,18.634659 C29.3681294,18.7020345 29.3521124,18.7688156 29.3332551,18.8348181 L29.0812923,19.7167139 L29.0812923,19.7167139 L11.336775,19.7167139 L0.985806519,19.7167139 L0,18.2379603 Z" id="Shoe"></path>
                            </g>
                            <g id="Accessories/Shoe/Flat-Simple" transform="translate(88.406667, 98.090652)" fill="#191847">
                                <path d="M0,18.2379603 L0.49290326,10.3512748 C3.37878256,11.1889518 6.99340646,10.8603399 11.336775,9.36543909 C15.6758209,12.4157936 21.0584722,14.5672576 27.4847289,15.8198311 C28.7857432,16.0733985 29.6348483,17.3336484 29.3812619,18.634659 C29.3681294,18.7020345 29.3521124,18.7688156 29.3332551,18.8348181 L29.0812923,19.7167139 L29.0812923,19.7167139 L11.336775,19.7167139 L0.985806519,19.7167139 L0,18.2379603 Z" id="Shoe"></path>
                            </g>
                        </g>
                        <g id="Body/Jacket-2" transform="translate(10.926667, 40.419263)">
                            <path d="M25.5824472,40.4192635 L35.76,42.4233908 C25.5247342,61.3540063 20.0357451,71.3872436 19.2930325,72.5231025 C17.6219292,75.0787851 19.1811024,79.7626047 19.7570545,82.2291364 C16.1438542,83.0638635 17.5687894,77.666603 12.9963543,78.793502 C8.82284751,79.822083 5.28421704,82.4617886 1.39259294,78.9017244 C0.914140624,78.4640354 0.563890907,77.0959437 2.19517721,76.3942559 C6.25930631,74.646096 12.2637147,71.3727016 13.2373301,70.1018379 C14.5650285,68.3687882 18.6800675,58.4745967 25.5824472,40.4192635 Z M126.24679,25.2645872 C124.646563,27.5842437 123.068482,30.095599 123.70789,30.9085597 C124.347299,31.7215203 126.199526,30.8242331 126.931284,32.1462666 C127.419123,33.0276222 124.296935,34.0819077 117.564721,35.3091229 L104.086404,45.5649742 L98.34,38.2588477 L116.336502,30.4150886 C119.489069,27.2973083 122.533322,24.9276512 125.469261,23.3061171 C126.347163,23.0287321 127.847017,22.9449308 126.24679,25.2645872 Z" id="Skin" fill="#B28B67"></path>
                            <path d="M61.2456865,4.88535383 L65.4603636,3.7827447 C75.564013,11.9388497 81.252513,33.1597036 87.7123986,35.4693464 C93.819959,37.6530202 101.914983,34.3146106 111.500298,29.9245699 L115.117962,36.3779743 C106.973047,46.8163599 88.5357185,56.6462145 80.3658326,52.6701734 C67.3038831,46.3133102 62.1130583,19.9808793 61.2456865,4.88535383 Z" id="Coat-Back" fill="#AFB9C5" transform="translate(88.181824, 28.677937) rotate(5.000000) translate(-88.181824, -28.677937) "></path>
                            <path d="M44.7,56.1926346 C61.9203054,56.1926346 74.5872011,56.1926346 82.7006872,56.1926346 C84.4371248,56.1926346 84.1099262,53.7042064 83.8589137,52.4485319 C80.9619252,37.9565307 69.6531811,22.3348547 69.6531811,1.70585573 L58.6919941,0 C49.6256842,14.4712827 46.4903971,32.2883617 44.7,56.1926346 Z" id="Shirt" fill="#DDE3E9"></path>
                            <path d="M62.324911,-4.66985594e-14 C72.1651317,33.2901669 74.8779063,55.47147 70.4632349,66.5439093 L70.4632349,66.5439093 L36.2566667,66.5439093 C36.7978899,58.4414235 38.5333512,49.8727134 40.9103587,41.5181217 C33.1634342,55.3876271 26.6517301,65.3723141 21.3752644,71.4730878 L13.41,69.9247441 C18.540861,38.3444106 33.3991499,15.0361626 57.9848665,-9.64365509e-14 Z" id="Coat-Front" fill="#DDE3E9"></path>
                        </g>
                    </g>
                    <g id="noun_Helmet_1612618-Copy" transform="translate(64.815000, 4.442553)" fill="#E7B258" fill-rule="nonzero">
                        <path d="M23.8064622,14.0680851 L1.52354162,14.0680851 C1.18022124,9.26930496 3.49965151,4.77189447 7.23364866,2.4956783 L8.02055387,9.58661844 C8.07736005,10.101823 8.53801777,10.4769719 9.04896293,10.4144471 C9.56083934,10.3572369 9.9286826,9.8933027 9.8712556,9.3787234 L8.94590473,1.03916255 C8.91920894,0.776245674 9.00364216,0.513328794 9.17778568,0.318876596 C9.35968961,0.116608794 9.62106009,0 9.8960889,0 L15.4336045,0 C15.7086333,0 15.9703142,0.11629617 16.1515973,0.318876596 C16.3260512,0.513641418 16.4111053,0.773119433 16.3856512,1.02321872 L15.4587482,9.3787234 C15.4013212,9.8933027 15.7691645,10.3572369 16.2807305,10.4144471 C16.7873298,10.4741583 17.2520229,10.1040113 17.3091395,9.58661844 L18.0960447,2.4956783 C21.8300419,4.77220709 24.1497826,9.26930496 23.8064622,14.0680851 Z" id="Path"></path>
                        <path d="M26.075,15.5489362 C26.075,16.3653787 25.4482687,17.0297872 24.678125,17.0297872 L1.396875,17.0297872 C0.62673125,17.0297872 0,16.3653787 0,15.5489362 C0,14.7324936 0.62673125,14.0680851 1.396875,14.0680851 L24.678125,14.0680851 C25.4482687,14.0680851 26.075,14.7324936 26.075,15.5489362 Z" id="Path"></path>
                    </g>
                </g>
            </g>
        </g>
    </g>
</svg>